<mxfile host="Electron" agent="Mozilla/5.0 (Windows NT 10.0; Win64; x64) AppleWebKit/537.36 (KHTML, like Gecko) draw.io/24.7.5 Chrome/126.0.6478.183 Electron/31.3.0 Safari/537.36" version="24.7.5">
  <diagram name="第 1 页" id="KxDFLfetRqq3sPZaoUq2">
    <mxGraphModel dx="996" dy="606" grid="1" gridSize="10" guides="1" tooltips="1" connect="1" arrows="1" fold="1" page="1" pageScale="1" pageWidth="827" pageHeight="1169" math="0" shadow="0">
      <root>
        <mxCell id="0" />
        <mxCell id="1" parent="0" />
        <mxCell id="KKik6kyklw7pSnvuN70y-1" value="" style="endArrow=classic;html=1;rounded=0;" edge="1" parent="1">
          <mxGeometry width="50" height="50" relative="1" as="geometry">
            <mxPoint x="890" y="230" as="sourcePoint" />
            <mxPoint x="960" y="230" as="targetPoint" />
          </mxGeometry>
        </mxCell>
        <mxCell id="KKik6kyklw7pSnvuN70y-3" value="源程序" style="text;html=1;align=center;verticalAlign=middle;resizable=0;points=[];autosize=1;strokeColor=none;fillColor=none;fontSize=14;" vertex="1" parent="1">
          <mxGeometry x="95" y="208" width="70" height="30" as="geometry" />
        </mxCell>
        <mxCell id="KKik6kyklw7pSnvuN70y-4" value="中间表示" style="text;html=1;align=center;verticalAlign=middle;resizable=0;points=[];autosize=1;strokeColor=none;fillColor=none;fontSize=14;" vertex="1" parent="1">
          <mxGeometry x="225" y="208" width="80" height="30" as="geometry" />
        </mxCell>
        <mxCell id="KKik6kyklw7pSnvuN70y-8" value="中间表示" style="text;html=1;align=center;verticalAlign=middle;resizable=0;points=[];autosize=1;strokeColor=none;fillColor=none;fontSize=14;" vertex="1" parent="1">
          <mxGeometry x="360" y="208" width="80" height="30" as="geometry" />
        </mxCell>
        <mxCell id="KKik6kyklw7pSnvuN70y-10" value="" style="endArrow=classic;html=1;rounded=0;" edge="1" parent="1" source="KKik6kyklw7pSnvuN70y-5" target="KKik6kyklw7pSnvuN70y-9">
          <mxGeometry width="50" height="50" relative="1" as="geometry">
            <mxPoint x="110" y="230" as="sourcePoint" />
            <mxPoint x="700" y="230" as="targetPoint" />
          </mxGeometry>
        </mxCell>
        <mxCell id="KKik6kyklw7pSnvuN70y-9" value="前端优化" style="rounded=0;whiteSpace=wrap;html=1;fontSize=16;" vertex="1" parent="1">
          <mxGeometry x="430" y="210" width="70" height="40" as="geometry" />
        </mxCell>
        <mxCell id="KKik6kyklw7pSnvuN70y-11" value="" style="endArrow=classic;html=1;rounded=0;" edge="1" parent="1" source="KKik6kyklw7pSnvuN70y-2" target="KKik6kyklw7pSnvuN70y-5">
          <mxGeometry width="50" height="50" relative="1" as="geometry">
            <mxPoint x="110" y="230" as="sourcePoint" />
            <mxPoint x="450" y="230" as="targetPoint" />
          </mxGeometry>
        </mxCell>
        <mxCell id="KKik6kyklw7pSnvuN70y-5" value="静态分析" style="rounded=0;whiteSpace=wrap;html=1;fontSize=16;" vertex="1" parent="1">
          <mxGeometry x="300" y="210" width="70" height="40" as="geometry" />
        </mxCell>
        <mxCell id="KKik6kyklw7pSnvuN70y-12" value="" style="endArrow=classic;html=1;rounded=0;" edge="1" parent="1" target="KKik6kyklw7pSnvuN70y-2">
          <mxGeometry width="50" height="50" relative="1" as="geometry">
            <mxPoint x="110" y="230" as="sourcePoint" />
            <mxPoint x="300" y="230" as="targetPoint" />
          </mxGeometry>
        </mxCell>
        <mxCell id="KKik6kyklw7pSnvuN70y-2" value="解析" style="rounded=0;whiteSpace=wrap;html=1;fontSize=16;" vertex="1" parent="1">
          <mxGeometry x="165" y="210" width="70" height="40" as="geometry" />
        </mxCell>
        <mxCell id="KKik6kyklw7pSnvuN70y-13" value="中间表示" style="text;html=1;align=center;verticalAlign=middle;resizable=0;points=[];autosize=1;strokeColor=none;fillColor=none;fontSize=14;" vertex="1" parent="1">
          <mxGeometry x="490" y="208" width="80" height="30" as="geometry" />
        </mxCell>
        <mxCell id="KKik6kyklw7pSnvuN70y-15" value="" style="endArrow=classic;html=1;rounded=0;" edge="1" parent="1" source="KKik6kyklw7pSnvuN70y-9" target="KKik6kyklw7pSnvuN70y-14">
          <mxGeometry width="50" height="50" relative="1" as="geometry">
            <mxPoint x="520" y="230" as="sourcePoint" />
            <mxPoint x="830" y="230" as="targetPoint" />
          </mxGeometry>
        </mxCell>
        <mxCell id="KKik6kyklw7pSnvuN70y-14" value="自动微分" style="rounded=0;whiteSpace=wrap;html=1;fontSize=16;" vertex="1" parent="1">
          <mxGeometry x="560" y="210" width="70" height="40" as="geometry" />
        </mxCell>
        <mxCell id="KKik6kyklw7pSnvuN70y-16" value="中间表示" style="text;html=1;align=center;verticalAlign=middle;resizable=0;points=[];autosize=1;strokeColor=none;fillColor=none;fontSize=14;" vertex="1" parent="1">
          <mxGeometry x="620" y="208" width="80" height="30" as="geometry" />
        </mxCell>
        <mxCell id="KKik6kyklw7pSnvuN70y-18" value="" style="endArrow=classic;html=1;rounded=0;" edge="1" parent="1" source="KKik6kyklw7pSnvuN70y-14" target="KKik6kyklw7pSnvuN70y-17">
          <mxGeometry width="50" height="50" relative="1" as="geometry">
            <mxPoint x="630" y="230" as="sourcePoint" />
            <mxPoint x="830" y="230" as="targetPoint" />
          </mxGeometry>
        </mxCell>
        <mxCell id="KKik6kyklw7pSnvuN70y-17" value="前端优化" style="rounded=0;whiteSpace=wrap;html=1;fontSize=16;" vertex="1" parent="1">
          <mxGeometry x="690" y="210" width="70" height="40" as="geometry" />
        </mxCell>
        <mxCell id="KKik6kyklw7pSnvuN70y-19" value="中间表示" style="text;html=1;align=center;verticalAlign=middle;resizable=0;points=[];autosize=1;strokeColor=none;fillColor=none;fontSize=14;" vertex="1" parent="1">
          <mxGeometry x="747" y="208" width="80" height="30" as="geometry" />
        </mxCell>
        <mxCell id="KKik6kyklw7pSnvuN70y-23" value="" style="endArrow=classic;html=1;rounded=0;" edge="1" parent="1" source="KKik6kyklw7pSnvuN70y-17">
          <mxGeometry width="50" height="50" relative="1" as="geometry">
            <mxPoint x="760" y="230" as="sourcePoint" />
            <mxPoint x="820" y="230" as="targetPoint" />
          </mxGeometry>
        </mxCell>
        <mxCell id="KKik6kyklw7pSnvuN70y-24" value="&lt;font style=&quot;font-size: 14px;&quot;&gt;是否&lt;font style=&quot;&quot;&gt;继续&lt;/font&gt;优化&lt;/font&gt;" style="rhombus;whiteSpace=wrap;html=1;" vertex="1" parent="1">
          <mxGeometry x="820" y="190" width="100" height="80" as="geometry" />
        </mxCell>
        <mxCell id="KKik6kyklw7pSnvuN70y-25" value="" style="endArrow=classic;html=1;rounded=0;exitX=0.5;exitY=1;exitDx=0;exitDy=0;entryX=0.5;entryY=1;entryDx=0;entryDy=0;" edge="1" parent="1" source="KKik6kyklw7pSnvuN70y-24" target="KKik6kyklw7pSnvuN70y-5">
          <mxGeometry width="50" height="50" relative="1" as="geometry">
            <mxPoint x="870" y="240" as="sourcePoint" />
            <mxPoint x="335" y="220" as="targetPoint" />
            <Array as="points">
              <mxPoint x="870" y="300" />
              <mxPoint x="335" y="300" />
            </Array>
          </mxGeometry>
        </mxCell>
        <mxCell id="KKik6kyklw7pSnvuN70y-26" value="是" style="text;html=1;align=center;verticalAlign=middle;resizable=0;points=[];autosize=1;strokeColor=none;fillColor=none;" vertex="1" parent="1">
          <mxGeometry x="840" y="268" width="40" height="30" as="geometry" />
        </mxCell>
        <mxCell id="KKik6kyklw7pSnvuN70y-27" value="否" style="text;html=1;align=center;verticalAlign=middle;resizable=0;points=[];autosize=1;strokeColor=none;fillColor=none;" vertex="1" parent="1">
          <mxGeometry x="910" y="208" width="40" height="30" as="geometry" />
        </mxCell>
        <mxCell id="KKik6kyklw7pSnvuN70y-28" value="&lt;font style=&quot;font-size: 14px;&quot;&gt;中间表示&lt;/font&gt;" style="text;html=1;align=center;verticalAlign=middle;resizable=0;points=[];autosize=1;strokeColor=none;fillColor=none;" vertex="1" parent="1">
          <mxGeometry x="905" y="230" width="80" height="30" as="geometry" />
        </mxCell>
        <mxCell id="KKik6kyklw7pSnvuN70y-29" value="&lt;font style=&quot;font-size: 14px;&quot;&gt;中间表示&lt;/font&gt;" style="text;html=1;align=center;verticalAlign=middle;resizable=0;points=[];autosize=1;strokeColor=none;fillColor=none;" vertex="1" parent="1">
          <mxGeometry x="334" y="270" width="80" height="30" as="geometry" />
        </mxCell>
      </root>
    </mxGraphModel>
  </diagram>
</mxfile>
